<svg version="1.0" xmlns="http://www.w3.org/2000/svg"
 width="512.000000pt" height="512.000000pt" viewBox="0 0 512.000000 512.000000"
 preserveAspectRatio="xMidYMid meet">

<g transform="translate(0.000000,512.000000) scale(0.100000,-0.100000)"
fill="#000000" stroke="none">
<path d="M1129 4832 c-207 -54 -349 -240 -349 -458 0 -116 35 -210 116 -310
l46 -56 -24 -16 c-25 -18 -149 -135 -428 -407 l-185 -180 -139 -315 c-77 -173
-145 -335 -153 -359 -30 -100 -2 -211 74 -292 61 -65 128 -93 223 -93 140 -1
213 53 305 223 l60 111 5 -81 c5 -76 8 -83 37 -110 l32 -28 -80 -418 -80 -418
-241 -433 c-132 -238 -247 -454 -255 -480 -9 -30 -13 -72 -10 -117 9 -165 136
-298 304 -320 102 -13 238 43 301 124 16 20 145 245 288 501 l258 465 62 235
61 235 96 -191 c52 -105 103 -216 112 -246 19 -69 51 -100 99 -100 78 0 114
52 97 140 -14 71 -351 756 -379 771 -11 6 -38 11 -60 11 -71 0 -76 -10 -179
-411 l-92 -361 -248 -446 c-137 -246 -261 -461 -276 -479 -42 -47 -94 -61
-152 -39 -55 22 -87 64 -92 125 -4 44 4 61 246 496 l250 450 85 445 c48 245
86 449 86 453 0 4 151 6 336 5 l336 -3 68 -145 c36 -80 128 -278 203 -440
l137 -296 90 -457 c50 -251 90 -476 90 -499 0 -81 -58 -138 -140 -138 -53 0
-75 12 -131 71 -38 41 -51 49 -81 49 -55 0 -98 -40 -98 -92 0 -50 26 -94 87
-147 91 -80 231 -104 350 -59 79 29 162 112 191 191 34 91 29 150 -48 544
-130 665 -94 547 -321 1037 l-200 431 1 205 c0 112 2 206 4 207 1 2 148 -52
327 -119 333 -125 394 -140 469 -121 34 9 38 6 142 -77 293 -236 637 -441 963
-573 61 -24 119 -48 130 -53 12 -5 -92 -11 -270 -15 -264 -5 -296 -8 -360 -28
-95 -31 -165 -72 -240 -142 l-62 -59 -54 16 c-109 32 -199 109 -246 212 -14
31 -32 71 -40 88 -29 61 -106 73 -155 24 -28 -28 -30 -35 -26 -81 16 -163 202
-367 391 -429 28 -9 36 -16 33 -28 -45 -147 -27 -316 46 -453 l32 -60 -32
-109 c-18 -60 -32 -123 -32 -142 1 -39 69 -288 95 -341 45 -95 173 -165 282
-154 188 20 308 201 253 384 l-12 40 58 71 59 71 270 0 270 1 145 -227 c80
-125 160 -243 179 -261 54 -54 113 -77 201 -77 89 0 147 23 203 79 64 63 82
109 82 207 l0 87 -70 133 c-38 74 -92 177 -120 231 l-49 96 47 90 c62 119 87
217 87 346 0 56 -6 127 -14 158 l-13 57 49 10 c109 24 207 102 251 199 30 68
37 263 12 329 -36 94 -104 143 -219 158 -46 6 -56 13 -140 99 -143 145 -237
181 -466 174 -130 -3 -139 -5 -203 -36 -85 -42 -152 -109 -191 -192 -28 -58
-32 -77 -36 -186 l-5 -122 -122 53 c-242 105 -499 256 -730 429 -185 139 -176
127 -151 201 41 122 7 250 -90 335 -36 32 -91 56 -335 146 l-292 108 -280 276
-280 275 39 45 c21 25 55 79 75 120 31 65 36 86 39 168 5 116 -15 198 -68 280
-115 178 -317 257 -521 204z m247 -215 c94 -48 143 -130 144 -240 0 -113 -50
-196 -148 -244 -180 -88 -392 40 -392 238 0 210 210 340 396 246z m31 -751
c48 -23 102 -71 328 -295 148 -148 279 -273 290 -279 11 -5 150 -58 309 -117
260 -98 290 -111 307 -139 30 -49 25 -92 -15 -132 -26 -26 -42 -34 -67 -34
-19 1 -175 54 -347 119 l-313 117 -244 235 c-135 129 -258 240 -275 247 -60
24 -130 -28 -130 -98 -1 -32 13 -48 185 -215 l185 -180 0 -217 0 -218 -370 0
-371 0 3 478 c3 473 3 477 26 527 52 113 118 176 227 214 82 29 190 24 272
-13z m-866 -1017 c-77 -140 -148 -264 -159 -276 -55 -62 -165 -26 -178 58 -5
31 13 80 130 345 l137 309 102 103 102 102 3 -193 2 -193 -139 -255z m3709
-484 c0 -97 -4 -174 -11 -188 -13 -28 -58 -57 -89 -57 -29 0 -77 26 -90 49
-13 26 -13 202 1 238 22 58 108 122 167 123 22 0 22 -1 22 -165z m306 100 c17
-13 48 -46 68 -73 54 -75 147 -130 218 -132 15 0 38 -4 52 -10 25 -9 26 -13
26 -92 0 -144 -39 -188 -169 -196 -67 -4 -102 1 -213 28 -73 18 -136 36 -141
40 -4 3 5 29 20 56 28 48 28 52 31 241 l4 193 36 -15 c20 -9 50 -27 68 -40z
m-181 -638 l200 -52 22 -65 c16 -48 22 -89 23 -155 0 -111 -16 -174 -74 -285
-50 -97 -63 -157 -46 -221 6 -24 61 -137 121 -250 121 -230 127 -252 80 -300
-39 -38 -80 -39 -120 -2 -16 16 -97 135 -181 265 -83 131 -163 247 -177 258
-24 19 -40 20 -298 20 l-272 0 5 53 c14 170 -65 268 -165 207 -38 -23 -37 -15
-37 -150 -1 -134 -18 -172 -125 -284 -44 -46 -83 -96 -87 -111 -5 -19 1 -52
16 -99 12 -38 23 -81 23 -94 0 -77 -90 -120 -148 -70 -19 18 -33 53 -61 151
l-35 127 36 119 c19 65 35 129 35 142 0 13 -23 70 -52 127 l-53 104 0 96 c0
88 3 103 32 164 58 122 169 207 299 228 32 6 169 10 304 10 183 0 259 4 300
15 60 16 174 70 191 92 16 18 19 18 244 -40z"/>
<path d="M1689 1021 c-77 -77 6 -199 106 -157 25 11 40 26 51 51 42 100 -80
183 -157 106z"/>
</g>
</svg>
